<svg width="187" height="58" viewBox="0 0 187 58" fill="none" xmlns="http://www.w3.org/2000/svg">
<path d="M59.1219 25.912L58.7059 27.128H66.3539L65.9379 25.88L62.5779 15.512C62.3219 16.4293 61.1699 19.896 59.1219 25.912ZM56.0499 35H53.2659L60.7859 13.432H64.3699L71.7619 35H68.9779L67.0899 29.336H57.9699L56.0499 35ZM77.7279 35H75.1999L75.2319 18.776H77.7279V21.624C78.5813 19.6187 80.0533 18.616 82.1439 18.616C82.5279 18.616 82.8266 18.6373 83.0399 18.68V21.176C82.5919 21.0267 82.1333 20.952 81.6639 20.952C80.5333 20.952 79.5946 21.4747 78.8479 22.52C78.1013 23.5653 77.7279 24.7707 77.7279 26.136V35ZM93.7974 34.584C93.0934 34.968 92.3041 35.16 91.4294 35.16C88.2294 35.16 86.6294 33.528 86.6294 30.264V20.824H84.0374V18.776H86.6294V14.744H89.1574V18.776H93.6374V20.824H89.1574V30.328C89.1574 32.056 89.9681 32.92 91.5894 32.92C92.4214 32.92 93.1574 32.6747 93.7974 32.184V34.584ZM110.282 35H107.754V24.504C107.754 23.3307 107.445 22.424 106.826 21.784C106.229 21.144 105.439 20.824 104.458 20.824C103.263 20.824 102.218 21.2827 101.322 22.2C100.426 23.1173 99.9779 24.4293 99.9779 26.136V35H97.4819V12.376H99.9779V21.592C100.938 19.5653 102.645 18.552 105.098 18.552C106.655 18.552 107.903 19.032 108.842 19.992C109.802 20.952 110.282 22.2533 110.282 23.896V35ZM131.723 33.304C129.995 34.6053 127.766 35.256 125.035 35.256C121.707 35.256 119.03 34.2747 117.003 32.312C114.977 30.328 113.963 27.6187 113.963 24.184C113.963 20.92 114.966 18.2533 116.971 16.184C118.998 14.0933 121.547 13.048 124.619 13.048C127.158 13.048 129.259 13.5387 130.923 14.52V17.304C129.174 16.152 127.147 15.576 124.843 15.576C122.433 15.576 120.47 16.3653 118.955 17.944C117.441 19.5013 116.683 21.5813 116.683 24.184C116.683 26.8507 117.43 28.952 118.923 30.488C120.417 32.0027 122.475 32.76 125.099 32.76C126.55 32.76 127.894 32.472 129.131 31.896V25.176H124.395V22.904H131.723V33.208H131.691L131.723 33.304ZM143.241 34.584C142.409 36.7813 141.417 38.328 140.265 39.224C139.134 40.12 137.833 40.568 136.361 40.568C135.806 40.568 135.358 40.5147 135.017 40.408V38.136C135.337 38.2213 135.699 38.264 136.105 38.264C138.259 38.264 139.785 37.0373 140.681 34.584L134.121 18.776H136.969L139.081 24.12L141.929 31.48C142.099 30.9253 142.953 28.472 144.489 24.12L146.377 18.776H149.097L143.241 34.584ZM156.942 33.048C158.094 33.048 159.011 32.728 159.694 32.088C160.377 31.4267 160.718 30.5947 160.718 29.592V27.512H157.902C156.537 27.512 155.513 27.7787 154.83 28.312C154.147 28.8453 153.806 29.5173 153.806 30.328C153.806 31.1387 154.073 31.8 154.606 32.312C155.139 32.8027 155.918 33.048 156.942 33.048ZM160.75 33.08C159.918 34.4667 158.403 35.16 156.206 35.16C154.691 35.16 153.465 34.712 152.526 33.816C151.609 32.92 151.15 31.7893 151.15 30.424C151.15 28.8667 151.737 27.6613 152.91 26.808C154.105 25.9333 155.726 25.496 157.774 25.496H160.718V24.664C160.718 23.384 160.43 22.424 159.854 21.784C159.278 21.1227 158.307 20.792 156.942 20.792C155.214 20.792 153.678 21.2507 152.334 22.168V19.64C153.55 18.8933 155.15 18.52 157.134 18.52C161.209 18.52 163.246 20.5893 163.246 24.728V35H160.75V33.08ZM180.532 35H178.004V24.504C178.004 23.3093 177.695 22.4027 177.076 21.784C176.479 21.144 175.689 20.824 174.708 20.824C173.492 20.824 172.436 21.2933 171.54 22.232C170.665 23.1707 170.228 24.472 170.228 26.136V35H167.732V18.776H170.228V21.592C171.188 19.5653 172.895 18.552 175.348 18.552C176.927 18.552 178.185 19.032 179.124 19.992C180.063 20.952 180.532 22.232 180.532 23.832V35Z" fill="white"/>
<path d="M53.99 52V45.02H57.98V45.55H54.59V48.19H57.75V48.72H54.59V52H53.99ZM59.128 52V51.5H60.148V45.52H59.128V45.02H61.768V45.52H60.748V51.5H61.768V52H59.128ZM63.9945 45.84H63.9645V52H63.3845V45.02H64.1345L67.8045 51.18H67.8345V45.02H68.4145V52H67.6645L63.9945 45.84ZM74.7663 52L74.0063 49.83H71.0363L70.2763 52H69.6763L72.1463 45.02H72.9163L75.3963 52H74.7663ZM72.5363 45.59H72.4963L71.1863 49.31H73.8463L72.5363 45.59ZM77.2563 45.84H77.2263V52H76.6463V45.02H77.3963L81.0663 51.18H81.0963V45.02H81.6763V52H80.9263L77.2563 45.84ZM86.018 52.12C85.1513 52.12 84.4813 51.82 84.008 51.22C83.5346 50.6133 83.298 49.7167 83.298 48.53C83.298 47.35 83.5346 46.45 84.008 45.83C84.4813 45.21 85.1513 44.9 86.018 44.9C86.578 44.9 87.048 45.0333 87.428 45.3C87.8146 45.5667 88.1146 45.93 88.328 46.39L87.838 46.68C87.6846 46.3 87.4513 46 87.138 45.78C86.8313 45.5533 86.458 45.44 86.018 45.44C85.3646 45.44 84.8546 45.6733 84.488 46.14C84.1213 46.6067 83.938 47.2733 83.938 48.14V48.93C83.938 49.79 84.1213 50.4467 84.488 50.9C84.8546 51.3533 85.3646 51.58 86.018 51.58C86.4846 51.58 86.8746 51.4633 87.188 51.23C87.5013 50.99 87.7346 50.67 87.888 50.27L88.378 50.56C88.1713 51.04 87.868 51.42 87.468 51.7C87.068 51.98 86.5846 52.12 86.018 52.12ZM89.8298 52V45.02H93.9098V45.55H90.4298V48.19H93.7398V48.72H90.4298V51.47H93.9098V52H89.8298ZM102.305 52L101.545 49.83H98.5753L97.8153 52H97.2153L99.6853 45.02H100.455L102.935 52H102.305ZM100.075 45.59H100.035L98.7253 49.31H101.385L100.075 45.59ZM105.769 45.55V52H105.169V45.55H102.829V45.02H108.109V45.55H105.769ZM111.666 52V45.02H115.746V45.55H112.266V48.19H115.576V48.72H112.266V51.47H115.746V52H111.666ZM121.778 52L121.018 49.83H118.048L117.288 52H116.688L119.158 45.02H119.928L122.408 52H121.778ZM119.548 45.59H119.508L118.198 49.31H120.858L119.548 45.59ZM125.508 52.12C124.935 52.12 124.455 52.0133 124.068 51.8C123.688 51.58 123.361 51.29 123.088 50.93L123.538 50.56C123.785 50.8867 124.061 51.14 124.368 51.32C124.681 51.5 125.068 51.59 125.528 51.59C126.068 51.59 126.481 51.4633 126.768 51.21C127.061 50.95 127.208 50.59 127.208 50.13C127.208 49.7033 127.085 49.39 126.838 49.19C126.591 48.99 126.245 48.8433 125.798 48.75L125.178 48.62C124.511 48.4867 124.028 48.2633 123.728 47.95C123.428 47.6367 123.278 47.2367 123.278 46.75C123.278 46.4433 123.331 46.1767 123.438 45.95C123.545 45.7167 123.695 45.5233 123.888 45.37C124.088 45.2167 124.325 45.1 124.598 45.02C124.878 44.94 125.185 44.9 125.518 44.9C126.038 44.9 126.478 44.9933 126.838 45.18C127.198 45.3667 127.495 45.63 127.728 45.97L127.278 46.3C127.085 46.02 126.841 45.8067 126.548 45.66C126.261 45.5067 125.908 45.43 125.488 45.43C124.988 45.43 124.591 45.54 124.298 45.76C124.011 45.9733 123.868 46.2967 123.868 46.73C123.868 47.1433 123.998 47.4467 124.258 47.64C124.518 47.8333 124.865 47.9733 125.298 48.06L125.918 48.19C126.611 48.3433 127.098 48.58 127.378 48.9C127.658 49.22 127.798 49.62 127.798 50.1C127.798 50.74 127.595 51.2367 127.188 51.59C126.781 51.9433 126.221 52.12 125.508 52.12ZM129.342 52V45.02H133.422V45.55H129.942V48.19H133.252V48.72H129.942V51.47H133.422V52H129.342Z" fill="white"/>
<path d="M6.31579 34.4211L0 40.6105V22.8421H6.31579M16.8421 30.5474L13.5368 27.7263L10.5263 30.5053V14.4211H16.8421M27.3684 27.0526L21.0526 33.3684V6H27.3684M33.2842 26.6526L29.4737 22.8421H40V33.3684L36.2316 29.6L21.0526 44.6526L13.7474 38.2947L5.78947 46H0L13.6211 32.6526L21.0526 38.9263" fill="white"/>
</svg>
