<svg width="68" height="68" viewBox="0 0 68 68" fill="none" xmlns="http://www.w3.org/2000/svg">
<path d="M17.043 15.7294L16.7388 14.2337L52.2549 7.11023L52.5591 8.60591L17.043 15.7294Z" fill="#436AF5"/>
<path d="M27.4876 38.0125C27.4876 43.0572 23.4061 47.1133 18.3867 47.1133C13.342 47.1133 9.28589 43.0319 9.28589 38.0125H27.4876Z" fill="white"/>
<path d="M18.3614 47.8992C12.911 47.8992 8.5 43.4628 8.5 38.0378C8.5 37.6068 8.82956 37.2773 9.26052 37.2773H27.4875C27.9185 37.2773 28.2481 37.6068 28.2481 38.0378C28.2481 43.4628 23.8117 47.8992 18.3614 47.8992ZM10.0464 38.773C10.4266 43.0319 14.0264 46.3781 18.3614 46.3781C22.6963 46.3781 26.2961 43.0319 26.6763 38.773H10.0464Z" fill="#436AF5"/>
<path d="M9.97017 38.2912L8.55054 37.7335L17.6514 14.7152C17.7781 14.4364 18.057 14.2336 18.3612 14.2336C18.6654 14.2336 18.9442 14.4364 19.071 14.7152L28.1718 37.7335L26.7522 38.2912L18.3612 17.0475L9.97017 38.2912Z" fill="#436AF5"/>
<path d="M18.3612 16.7434C19.3273 16.7434 20.1104 15.9602 20.1104 14.9942C20.1104 14.0281 19.3273 13.245 18.3612 13.245C17.3952 13.245 16.6121 14.0281 16.6121 14.9942C16.6121 15.9602 17.3952 16.7434 18.3612 16.7434Z" fill="#436AF5"/>
<path d="M18.3613 17.5039C16.967 17.5039 15.8516 16.3631 15.8516 14.9942C15.8516 13.6252 16.9924 12.4845 18.3613 12.4845C19.7303 12.4845 20.871 13.6252 20.871 14.9942C20.871 16.3631 19.7556 17.5039 18.3613 17.5039ZM18.3613 14.0055C17.8036 14.0055 17.3727 14.4618 17.3727 14.9942C17.3727 15.5265 17.829 15.9828 18.3613 15.9828C18.919 15.9828 19.35 15.5265 19.35 14.9942C19.35 14.4618 18.919 14.0055 18.3613 14.0055Z" fill="#436AF5"/>
<path d="M27.4875 38.0125C27.4875 39.4321 27.1833 40.7502 26.6002 41.9417H10.1477C9.5647 40.7502 9.2605 39.4321 9.2605 38.0125H27.4875Z" fill="black"/>
<path d="M60.0374 32.0804C60.0374 37.1251 55.956 41.1812 50.9366 41.1812C45.8918 41.1812 41.8357 37.0998 41.8357 32.0804H60.0374Z" fill="white"/>
<path d="M50.9365 41.9671C45.4862 41.9671 41.0752 37.5308 41.0752 32.1058C41.0752 31.6748 41.4047 31.3453 41.8357 31.3453H60.0627C60.4937 31.3453 60.8232 31.6748 60.8232 32.1058C60.7979 37.5308 56.3869 41.9671 50.9365 41.9671ZM42.6216 32.841C43.0018 37.0998 46.6016 40.4208 50.9365 40.4208C55.2715 40.4208 58.8713 37.0745 59.2515 32.841H42.6216Z" fill="#436AF5"/>
<path d="M60.0627 32.0804C60.0627 33.5001 59.7585 34.8183 59.1754 36.0098H42.7229C42.1399 34.8183 41.8357 33.5001 41.8357 32.0804H60.0627Z" fill="black"/>
<path d="M42.5202 32.3592L41.1006 31.8015L50.2014 8.7833C50.3282 8.50444 50.607 8.30164 50.9112 8.30164C51.2154 8.30164 51.4943 8.50444 51.621 8.7833L60.7219 31.8015L59.3023 32.3592L50.9112 11.1155L42.5202 32.3592Z" fill="#436AF5"/>
<path d="M50.9367 10.6339C51.9028 10.6339 52.6859 9.85073 52.6859 8.88468C52.6859 7.91864 51.9028 7.1355 50.9367 7.1355C49.9707 7.1355 49.1875 7.91864 49.1875 8.88468C49.1875 9.85073 49.9707 10.6339 50.9367 10.6339Z" fill="#436AF5"/>
<path d="M50.9367 11.3944C49.5424 11.3944 48.427 10.2536 48.427 8.8847C48.427 7.51577 49.5678 6.375 50.9367 6.375C52.3056 6.375 53.4464 7.51577 53.4464 8.8847C53.4464 10.2536 52.331 11.3944 50.9367 11.3944ZM50.9367 7.87068C50.379 7.87068 49.948 8.32699 49.948 8.85935C49.948 9.41706 50.4043 9.84802 50.9367 9.84802C51.4944 9.84802 51.9254 9.39171 51.9254 8.85935C51.9254 8.32699 51.4691 7.87068 50.9367 7.87068Z" fill="#436AF5"/>
<path d="M35.4476 11.6732H33.9265V56.0113H35.4476V11.6732Z" fill="#436AF5"/>
<path d="M44.726 54.0339H24.623L21.9866 58.9519H47.3625L44.726 54.0339Z" fill="#436AF5"/>
<path d="M47.3624 59.7124H21.9865C21.7077 59.7124 21.4795 59.5856 21.3274 59.3321C21.2007 59.104 21.1753 58.8251 21.3021 58.5716L23.9385 53.6536C24.0653 53.4001 24.3188 53.248 24.5976 53.248H44.7006C44.9794 53.248 45.233 53.4001 45.3597 53.6536L47.9962 58.5716C48.1229 58.7997 48.1229 59.104 47.9708 59.3321C47.8948 59.5856 47.6413 59.7124 47.3624 59.7124ZM23.2541 58.1913H46.0949L44.2696 54.7944H25.0793L23.2541 58.1913Z" fill="#436AF5"/>
<path d="M40.3404 54.0341H24.623L21.9866 58.9521H42.9768L40.3404 54.0341Z" fill="white"/>
<path d="M47.3624 59.7124H21.9865C21.7077 59.7124 21.4795 59.5856 21.3274 59.3321C21.2007 59.104 21.1753 58.8251 21.3021 58.5716L23.9385 53.6536C24.0653 53.4001 24.3188 53.248 24.5976 53.248H44.7006C44.9794 53.248 45.233 53.4001 45.3597 53.6536L47.9962 58.5716C48.1229 58.7997 48.1229 59.104 47.9708 59.3321C47.8948 59.5856 47.6413 59.7124 47.3624 59.7124ZM23.2541 58.1913H46.0949L44.2696 54.7944H25.0793L23.2541 58.1913Z" fill="#436AF5"/>
<path d="M34.687 15.4758C36.7871 15.4758 38.4896 13.7733 38.4896 11.6732C38.4896 9.57308 36.7871 7.87061 34.687 7.87061C32.5869 7.87061 30.8845 9.57308 30.8845 11.6732C30.8845 13.7733 32.5869 15.4758 34.687 15.4758Z" fill="white"/>
<path d="M34.6871 16.2617C32.1521 16.2617 30.124 14.2083 30.124 11.6986C30.124 9.18889 32.1774 7.1355 34.6871 7.1355C37.1968 7.1355 39.2502 9.18889 39.2502 11.6986C39.2502 14.2083 37.1968 16.2617 34.6871 16.2617ZM34.6871 8.63118C33.014 8.63118 31.6451 10.0001 31.6451 11.6986C31.6451 13.3971 33.014 14.7407 34.6871 14.7407C36.3602 14.7407 37.7545 13.3717 37.7545 11.6986C37.7545 10.0255 36.3602 8.63118 34.6871 8.63118Z" fill="#436AF5"/>
<path d="M38.4896 11.6733C38.4896 13.7774 36.7911 15.4759 34.6871 15.4759C34.3828 15.4759 34.0786 15.4506 33.7998 15.3745C35.4983 14.9689 36.7404 13.4732 36.7404 11.6733C36.7404 9.87342 35.4983 8.35239 33.7998 7.97213C34.0786 7.89608 34.3828 7.87073 34.6871 7.87073C36.7911 7.87073 38.4896 9.56921 38.4896 11.6733Z" fill="#436AF5"/>
<path d="M34.6871 16.2617C32.1521 16.2617 30.124 14.2083 30.124 11.6986C30.124 9.18889 32.1774 7.1355 34.6871 7.1355C37.1968 7.1355 39.2502 9.18889 39.2502 11.6986C39.2502 14.2083 37.1968 16.2617 34.6871 16.2617ZM34.6871 8.63118C33.014 8.63118 31.6451 10.0001 31.6451 11.6986C31.6451 13.3971 33.014 14.7407 34.6871 14.7407C36.3602 14.7407 37.7545 13.3717 37.7545 11.6986C37.7545 10.0255 36.3602 8.63118 34.6871 8.63118Z" fill="#436AF5"/>
<path d="M18.3614 47.8992C12.911 47.8992 8.5 43.4628 8.5 38.0378C8.5 37.6069 8.82956 37.2773 9.26052 37.2773H27.4875C27.9185 37.2773 28.2481 37.6069 28.2481 38.0378C28.2481 43.4628 23.8117 47.8992 18.3614 47.8992ZM10.0464 38.773C10.4266 43.0319 14.0264 46.3781 18.3614 46.3781C22.6963 46.3781 26.2961 43.0319 26.6763 38.773H10.0464Z" fill="#436AF5"/>
<path d="M50.9366 41.9671C45.4862 41.9671 41.0752 37.5308 41.0752 32.1058C41.0752 31.6748 41.4048 31.3453 41.8357 31.3453H60.0628C60.4937 31.3453 60.8233 31.6748 60.8233 32.1058C60.7979 37.5308 56.3869 41.9671 50.9366 41.9671ZM42.6216 32.841C43.0019 37.0998 46.6016 40.4208 50.9366 40.4208C55.2715 40.4208 58.8713 37.0745 59.2515 32.841H42.6216Z" fill="#436AF5"/>
</svg>
