<svg width="68" height="68" viewBox="0 0 68 68" fill="none" xmlns="http://www.w3.org/2000/svg">
<path d="M33.9999 60.4444C48.6047 60.4444 60.4443 48.6048 60.4443 34C60.4443 19.3951 48.6047 7.55554 33.9999 7.55554C19.395 7.55554 7.55542 19.3951 7.55542 34C7.55542 48.6048 19.395 60.4444 33.9999 60.4444Z" fill="white"/>
<path fill-rule="evenodd" clip-rule="evenodd" d="M32.5 60.4026C32.9965 60.4303 33.4966 60.4444 34 60.4444C48.6049 60.4444 60.4444 48.6048 60.4444 34C60.4444 19.3951 48.6049 7.55554 34 7.55554C33.4966 7.55554 32.9965 7.56961 32.5 7.59737C46.407 8.37502 57.4444 19.8985 57.4444 34C57.4444 48.1014 46.407 59.6249 32.5 60.4026Z" fill="#436AF5"/>
<path fill-rule="evenodd" clip-rule="evenodd" d="M14 34C14 23.0536 22.8738 14.1799 33.8201 14.1799C34.1974 14.1799 34.5722 14.1904 34.9443 14.2112C24.521 14.7941 16.2485 23.431 16.2485 34C16.2485 44.569 24.5211 53.2059 34.9443 53.7887C34.5722 53.8095 34.1974 53.8201 33.8201 53.8201C22.8738 53.8201 14 44.9463 14 34Z" fill="#436AF5"/>
<path d="M41.5557 23.3467H26.4446V24.8578H41.5557V23.3467Z" fill="#436AF5"/>
<path d="M41.5557 29.3912H26.4446V30.9023H41.5557V29.3912Z" fill="#436AF5"/>
<path d="M36.3675 48.7585L27.2757 36.5185C27.2024 36.3969 27.1636 36.2575 27.1636 36.1155C27.1636 35.9735 27.2024 35.8342 27.2757 35.7126C27.3408 35.5892 27.4387 35.4862 27.5588 35.4151C27.6788 35.3439 27.8162 35.3074 27.9557 35.3096H31.0786C32.4613 35.3096 33.7873 34.7603 34.765 33.7826C35.7427 32.805 36.292 31.4789 36.292 30.0963C36.292 28.7136 35.7427 27.3876 34.765 26.4099C33.7873 25.4322 32.4613 24.8829 31.0786 24.8829H26.4446V23.3718H31.0031C32.7865 23.3718 34.4969 24.0803 35.758 25.3414C37.0191 26.6024 37.7275 28.3128 37.7275 30.0963C37.7275 31.8797 37.0191 33.5901 35.758 34.8512C34.4969 36.1122 32.7865 36.8207 31.0031 36.8207H29.3912L37.5764 47.9022L36.3675 48.7585Z" fill="black"/>
<path d="M33.9999 55.3822C29.7709 55.3822 25.6369 54.1281 22.1206 51.7786C18.6043 49.4291 15.8637 46.0897 14.2453 42.1826C12.6269 38.2755 12.2035 33.9762 13.0285 29.8285C13.8536 25.6808 15.89 21.8708 18.8804 18.8805C21.8707 15.8901 25.6807 13.8536 29.8284 13.0286C33.9762 12.2036 38.2754 12.627 42.1825 14.2454C46.0896 15.8637 49.4291 18.6044 51.7786 22.1206C54.1281 25.6369 55.3821 29.771 55.3821 34C55.3755 39.6688 53.1206 45.1036 49.1121 49.1121C45.1036 53.1206 39.6688 55.3755 33.9999 55.3822ZM33.9999 14.1289C30.0698 14.1289 26.2279 15.2943 22.9601 17.4777C19.6923 19.6612 17.1454 22.7647 15.6414 26.3956C14.1374 30.0266 13.7439 34.022 14.5106 37.8766C15.2773 41.7312 17.1699 45.2719 19.9489 48.051C22.7279 50.83 26.2686 52.7225 30.1232 53.4893C33.9779 54.256 37.9733 53.8625 41.6042 52.3585C45.2352 50.8545 48.3387 48.3075 50.5221 45.0398C52.7056 41.772 53.871 37.9301 53.871 34C53.8643 28.7319 51.7686 23.6814 48.0435 19.9563C44.3184 16.2312 39.268 14.1355 33.9999 14.1289Z" fill="black"/>
<path d="M33.9998 61.2C28.6202 61.2 23.3613 59.6047 18.8883 56.616C14.4153 53.6272 10.929 49.3791 8.8703 44.409C6.81159 39.4388 6.27294 33.9698 7.32246 28.6935C8.37198 23.4173 10.9625 18.5707 14.7665 14.7667C18.5705 10.9627 23.4171 8.37216 28.6934 7.32264C33.9697 6.27312 39.4387 6.81177 44.4088 8.87048C49.379 10.9292 53.627 14.4155 56.6158 18.8885C59.6046 23.3615 61.1998 28.6203 61.1998 34C61.1932 41.2118 58.3253 48.1264 53.2258 53.2259C48.1262 58.3255 41.2117 61.1933 33.9998 61.2ZM33.9998 8.31111C28.9191 8.31111 23.9524 9.81774 19.7279 12.6405C15.5033 15.4632 12.2107 19.4753 10.2664 24.1693C8.32205 28.8633 7.81332 34.0285 8.80454 39.0117C9.79575 43.9948 12.2424 48.5721 15.8351 52.1648C19.4277 55.7574 24.005 58.2041 28.9882 59.1953C33.9713 60.1865 39.1365 59.6778 43.8306 57.7334C48.5246 55.7891 52.5366 52.4965 55.3594 48.272C58.1821 44.0475 59.6887 39.0808 59.6887 34C59.6821 27.1889 56.9734 20.6587 52.1573 15.8426C47.3411 11.0264 40.8109 8.31778 33.9998 8.31111Z" fill="black"/>
</svg>
