<svg width="68" height="68" viewBox="0 0 68 68" fill="none" xmlns="http://www.w3.org/2000/svg">
<g clip-path="url(#clip0_106_34)">
<mask id="mask0_106_34" style="mask-type:luminance" maskUnits="userSpaceOnUse" x="0" y="0" width="68" height="68">
<path d="M68 0H0V68H68V0Z" fill="white"/>
</mask>
<g mask="url(#mask0_106_34)">
<path d="M17.8041 61.7112C16.7836 61.7112 15.9724 60.9001 15.9724 59.8796V14.8473C15.9724 13.8268 16.7836 13.0157 17.8041 13.0157H53.2594C54.2799 13.0157 55.0911 13.8268 55.0911 14.8473V59.8534C55.0911 60.8739 54.2799 61.685 53.2594 61.685H17.8041V61.7112Z" fill="white"/>
<path d="M53.2594 13.8007C53.8351 13.8007 54.3061 14.2717 54.3061 14.8474V59.8534C54.3061 60.4291 53.8351 60.9001 53.2594 60.9001H17.8041C17.2284 60.9001 16.7574 60.4291 16.7574 59.8534V14.8474C16.7574 14.2717 17.2284 13.8007 17.8041 13.8007H53.2594ZM53.2594 12.2307H17.8041C16.3649 12.2307 15.1875 13.4082 15.1875 14.8474V59.8534C15.1875 61.2926 16.3649 62.4701 17.8041 62.4701H53.2594C54.6986 62.4701 55.8761 61.2926 55.8761 59.8534V14.8474C55.8761 13.4082 54.6986 12.2307 53.2594 12.2307Z" fill="black"/>
<path d="M55.8761 14.6642V60.0628C55.8761 61.3973 54.8033 62.4963 53.4426 62.4963H17.6209C16.2864 62.4963 15.1875 61.3973 15.1875 60.0628H48.5495C49.9102 60.0628 50.983 58.9638 50.983 57.6293V12.2307H53.4164C54.8033 12.2307 55.8761 13.3297 55.8761 14.6642Z" fill="black"/>
<path d="M54.9605 13.9578V32.7976H50.9832V12.7542H53.7568C54.4371 12.7542 54.9605 13.3037 54.9605 13.9578Z" fill="white"/>
<path d="M55.8761 32.1172H15.1875V33.6871H55.8761V32.1172Z" fill="#436AF5"/>
<path d="M53.2594 13.8007C53.8351 13.8007 54.3061 14.2717 54.3061 14.8474V59.8534C54.3061 60.4291 53.8351 60.9001 53.2594 60.9001H17.8041C17.2284 60.9001 16.7574 60.4291 16.7574 59.8534V14.8474C16.7574 14.2717 17.2284 13.8007 17.8041 13.8007H53.2594ZM53.2594 12.2307H17.8041C16.3649 12.2307 15.1875 13.4082 15.1875 14.8474V59.8534C15.1875 61.2926 16.3649 62.4701 17.8041 62.4701H53.2594C54.6986 62.4701 55.8761 61.2926 55.8761 59.8534V14.8474C55.8761 13.4082 54.6986 12.2307 53.2594 12.2307Z" fill="black"/>
<path d="M48.4711 41.694H22.5664V43.264H48.4711V41.694Z" fill="#436AF5"/>
<path d="M48.4711 51.5325H22.5664V53.1025H48.4711V51.5325Z" fill="#436AF5"/>
<path d="M40.8044 45.1218C42.264 45.1218 43.4472 43.9385 43.4472 42.479C43.4472 41.0194 42.264 39.8362 40.8044 39.8362C39.3449 39.8362 38.1616 41.0194 38.1616 42.479C38.1616 43.9385 39.3449 45.1218 40.8044 45.1218Z" fill="white"/>
<path d="M40.8045 45.9067C38.9205 45.9067 37.3767 44.3629 37.3767 42.4789C37.3767 40.5949 38.9205 39.0511 40.8045 39.0511C42.6885 39.0511 44.2323 40.5949 44.2323 42.4789C44.2323 44.3629 42.7146 45.9067 40.8045 45.9067ZM40.8045 40.6211C39.784 40.6211 38.9467 41.4584 38.9467 42.4789C38.9467 43.4994 39.784 44.3367 40.8045 44.3367C41.825 44.3367 42.6623 43.4994 42.6623 42.4789C42.6623 41.4584 41.825 40.6211 40.8045 40.6211Z" fill="black"/>
<path d="M30.3901 54.9864C31.8496 54.9864 33.0329 53.8032 33.0329 52.3436C33.0329 50.8841 31.8496 49.7008 30.3901 49.7008C28.9305 49.7008 27.7473 50.8841 27.7473 52.3436C27.7473 53.8032 28.9305 54.9864 30.3901 54.9864Z" fill="white"/>
<path d="M30.3902 55.7715C28.5062 55.7715 26.9624 54.2276 26.9624 52.3437C26.9624 50.4597 28.5062 48.9159 30.3902 48.9159C32.2741 48.9159 33.8179 50.4597 33.8179 52.3437C33.8179 54.2276 32.3003 55.7715 30.3902 55.7715ZM30.3902 50.4597C29.3697 50.4597 28.5323 51.297 28.5323 52.3175C28.5323 53.338 29.3697 54.1753 30.3902 54.1753C31.4106 54.1753 32.248 53.338 32.248 52.3175C32.248 51.297 31.4368 50.4597 30.3902 50.4597Z" fill="black"/>
<path d="M50.9829 17.6733H44.3105V19.2433H50.9829V17.6733Z" fill="#436AF5"/>
<path d="M50.9829 20.3423H44.3105V21.9123H50.9829V20.3423Z" fill="#436AF5"/>
<path d="M48.3402 29.6314L44.3106 24.1888C44.1275 23.9533 44.1013 23.6393 44.2321 23.3776C44.363 23.1159 44.6246 22.9328 44.9386 22.9328H46.3254C47.3459 22.9328 48.1832 22.0955 48.1832 21.075C48.1832 20.0545 47.3459 19.2172 46.3254 19.2172H44.3106V17.6472H46.3254C48.2094 17.6472 49.7532 19.191 49.7532 21.075C49.7532 22.9066 48.3141 24.3981 46.5086 24.5028L49.5962 28.6894L48.3402 29.6314Z" fill="black"/>
<path d="M21.3103 26.6483H27.878C28.7415 26.6483 29.448 25.9418 29.448 25.0783V6.60489C29.448 5.7414 28.7415 5.03491 27.878 5.03491H22.8803C22.0168 5.03491 21.3103 5.7414 21.3103 6.60489V26.6483Z" fill="white"/>
<path d="M27.9042 27.4334H20.5515V6.60497C20.5515 5.29665 21.5981 4.25 22.9064 4.25H27.9042C29.2125 4.25 30.2592 5.29665 30.2592 6.60497V25.0784C30.2592 26.3867 29.1864 27.4334 27.9042 27.4334ZM22.0953 25.8634H27.878C28.3229 25.8634 28.663 25.5232 28.663 25.0784V6.60497C28.663 6.16014 28.3229 5.81998 27.878 5.81998H22.8803C22.4354 5.81998 22.0953 6.16014 22.0953 6.60497V25.8634Z" fill="white"/>
<path d="M13.1726 26.6483H21.3103V12.2307H14.7425C13.8791 12.2307 13.1726 12.9372 13.1726 13.8007V26.6483Z" fill="white"/>
<path d="M22.0954 27.4334H12.3877V13.8007C12.3877 12.4924 13.4343 11.4457 14.7427 11.4457H22.0954V27.4334ZM13.9577 25.8634H20.5254V13.0157H14.7427C14.2978 13.0157 13.9577 13.3559 13.9577 13.8007V25.8634Z" fill="white"/>
<path d="M6.60489 26.6483H13.1726V19.4526H6.60489C5.7414 19.4526 5.03491 20.1591 5.03491 21.0226V25.0784C5.03491 25.9419 5.7414 26.6483 6.60489 26.6483Z" fill="white"/>
<path d="M13.9577 27.4334H6.60497C5.29665 27.4334 4.25 26.3867 4.25 25.0784V21.0226C4.25 19.7143 5.29665 18.6677 6.60497 18.6677H13.9577V27.4334ZM6.60497 20.2115C6.16014 20.2115 5.81998 20.5516 5.81998 20.9965V25.0522C5.81998 25.4971 6.16014 25.8372 6.60497 25.8372H12.3877V20.1853H6.60497V20.2115Z" fill="white"/>
<path d="M29.4744 6.60501V25.0784C29.4744 25.9419 28.7679 26.6484 27.9044 26.6484H25.0784C25.9419 26.6484 26.6484 25.9419 26.6484 25.0784V6.60501C26.6484 5.74153 25.9419 5.03503 25.0784 5.03503H27.9044C28.7679 5.03503 29.4744 5.74153 29.4744 6.60501Z" fill="black"/>
<path d="M21.3366 12.2307H18.4844V26.6484H21.3366V12.2307Z" fill="#436AF5"/>
<path d="M13.1989 19.4528H10.3467V26.6485H13.1989V19.4528Z" fill="#436AF5"/>
<path d="M27.9042 27.4334H20.5515V6.60497C20.5515 5.29665 21.5981 4.25 22.9064 4.25H27.9042C29.2125 4.25 30.2592 5.29665 30.2592 6.60497V25.0784C30.2592 26.3867 29.1864 27.4334 27.9042 27.4334ZM22.0953 25.8634H27.878C28.3229 25.8634 28.663 25.5232 28.663 25.0784V6.60497C28.663 6.16014 28.3229 5.81998 27.878 5.81998H22.8803C22.4354 5.81998 22.0953 6.16014 22.0953 6.60497V25.8634Z" fill="white"/>
<path d="M22.0954 27.4334H12.3877V13.8007C12.3877 12.4924 13.4343 11.4457 14.7427 11.4457H22.0954V27.4334ZM13.9577 25.8634H20.5254V13.0157H14.7427C14.2978 13.0157 13.9577 13.3559 13.9577 13.8007V25.8634Z" fill="white"/>
<path d="M13.9577 27.4334H6.60497C5.29665 27.4334 4.25 26.3867 4.25 25.0784V21.0226C4.25 19.7143 5.29665 18.6677 6.60497 18.6677H13.9577V27.4334ZM6.60497 20.2115C6.16014 20.2115 5.81998 20.5516 5.81998 20.9965V25.0522C5.81998 25.4971 6.16014 25.8372 6.60497 25.8372H12.3877V20.1853H6.60497V20.2115Z" fill="white"/>
</g>
</g>
<defs>
<clipPath id="clip0_106_34">
<rect width="68" height="68" fill="white"/>
</clipPath>
</defs>
</svg>
