<svg width="68" height="68" viewBox="0 0 68 68" fill="none" xmlns="http://www.w3.org/2000/svg">
<path d="M15.8845 12.8269C15.8845 12.4429 16.1958 12.1316 16.5798 12.1316H54.335C54.719 12.1316 55.0303 12.4429 55.0303 12.8269V60.1366C55.0303 60.5212 54.7185 60.8329 54.334 60.8329H16.5808C16.1962 60.8329 15.8845 60.5212 15.8845 60.1366V12.8269Z" fill="white"/>
<path fill-rule="evenodd" clip-rule="evenodd" d="M17.717 11.3475H53.197C54.6434 11.3475 55.8131 12.5199 55.8131 13.9636V58.9992C55.8131 60.4457 54.6434 61.6181 53.197 61.6181H17.717C16.2706 61.6181 15.0981 60.4457 15.0981 58.9992V13.9636C15.0981 12.5199 16.2706 11.3475 17.717 11.3475ZM54.2429 13.9636C54.2429 13.3867 53.7739 12.9177 53.197 12.9177H17.717C17.1399 12.9177 16.6711 13.3867 16.6711 13.9636V58.9993C16.6711 59.5764 17.1399 60.0479 17.717 60.0479H53.197C53.774 60.0479 54.2429 59.5764 54.2429 58.9993V13.9636Z" fill="black"/>
<path d="M55.8026 13.7739V59.1863C55.8026 60.5274 54.7304 61.626 53.363 61.626H17.5352C16.1942 61.626 15.0981 60.5274 15.0981 59.1863H48.4864C49.8511 59.1863 50.9233 58.0903 50.9233 56.7493V11.3369H53.363C54.7304 11.3369 55.8026 12.4329 55.8026 13.7739Z" fill="black"/>
<path d="M54.8992 13.0685V31.9216H50.9236V11.8724H53.7057C54.3644 11.8724 54.8992 12.4098 54.8992 13.0685Z" fill="white"/>
<path d="M55.8155 31.2333H15.1003V32.8027H55.8155V31.2333Z" fill="#436AF5"/>
<path fill-rule="evenodd" clip-rule="evenodd" d="M17.717 11.3475H53.197C54.6434 11.3475 55.8131 12.5199 55.8131 13.9636V58.9992C55.8131 60.4457 54.6434 61.6181 53.197 61.6181H17.717C16.2706 61.6181 15.0981 60.4457 15.0981 58.9992V13.9636C15.0981 12.5199 16.2706 11.3475 17.717 11.3475ZM54.2429 13.9636C54.2429 13.3867 53.7739 12.9177 53.197 12.9177H17.717C17.1399 12.9177 16.6711 13.3867 16.6711 13.9636V58.9993C16.6711 59.5764 17.1399 60.0479 17.717 60.0479H53.197C53.774 60.0479 54.2429 59.5764 54.2429 58.9993V13.9636Z" fill="black"/>
<path d="M48.4216 40.8234H22.4951V42.3928H48.4216V40.8234Z" fill="#436AF5"/>
<path d="M48.4216 50.6643H22.4951V52.2337H48.4216V50.6643Z" fill="#436AF5"/>
<path d="M40.7353 44.2585C42.1991 44.2585 43.3857 43.0719 43.3857 41.6081C43.3857 40.1444 42.1991 38.9578 40.7353 38.9578C39.2716 38.9578 38.085 40.1444 38.085 41.6081C38.085 43.0719 39.2716 44.2585 40.7353 44.2585Z" fill="#436AF5"/>
<path fill-rule="evenodd" clip-rule="evenodd" d="M37.3 41.609C37.3 43.5033 38.8412 45.0445 40.7355 45.0445C42.6298 45.0445 44.1711 43.5033 44.1711 41.609C44.1711 39.7147 42.6298 38.1735 40.7355 38.1735C38.8412 38.1735 37.3 39.7147 37.3 41.609ZM38.8703 41.609C38.8703 40.5789 39.708 39.7436 40.7355 39.7436C41.7657 39.7436 42.6007 40.5789 42.6007 41.609C42.6007 42.6365 41.7656 43.4743 40.7355 43.4743C39.708 43.4743 38.8703 42.6365 38.8703 41.609Z" fill="black"/>
<path d="M30.3215 54.1147C31.7852 54.1147 32.9718 52.9281 32.9718 51.4643C32.9718 50.0006 31.7852 48.814 30.3215 48.814C28.8577 48.814 27.6711 50.0006 27.6711 51.4643C27.6711 52.9281 28.8577 54.1147 30.3215 54.1147Z" fill="#436AF5"/>
<path fill-rule="evenodd" clip-rule="evenodd" d="M26.8855 51.4648C26.8855 53.3591 28.4267 54.9004 30.321 54.9004C32.2153 54.9004 33.7565 53.3591 33.7565 51.4648C33.7565 49.5706 32.2153 48.0293 30.321 48.0293C28.4267 48.0293 26.8855 49.5706 26.8855 51.4648ZM28.4558 51.4648C28.4558 50.4348 29.2909 49.5995 30.321 49.5995C31.3512 49.5995 32.1863 50.4348 32.1863 51.4648C32.1863 52.495 31.3512 53.3302 30.321 53.3302C29.2909 53.3302 28.4558 52.495 28.4558 51.4648Z" fill="black"/>
<path d="M50.9245 17.3336H45.1819V18.6818H50.9245V17.3336Z" fill="#436AF5"/>
<path d="M50.9245 19.6371H45.1819V20.9853H50.9245V19.6371Z" fill="#436AF5"/>
<path d="M48.6422 27.6165L45.1856 22.948C45.0328 22.7425 45.009 22.4685 45.125 22.2419C45.2383 22.0154 45.4727 21.8731 45.7283 21.8731H46.914C47.7938 21.8731 48.5104 21.1565 48.5104 20.2765C48.5104 19.3966 47.7938 18.6826 46.914 18.6826H45.183V17.3336H46.914C48.5369 17.3336 49.8593 18.6536 49.8593 20.2765C49.8593 21.8494 48.6184 23.1377 47.0641 23.2167L49.7277 26.8155L48.6422 27.6165Z" fill="black"/>
<path d="M40.7218 7.16101H8.15401C7.60525 7.16101 7.1604 7.60587 7.1604 8.15462V23.7855C7.1604 24.3343 7.60525 24.7791 8.15401 24.7791H40.7218C41.2705 24.7791 41.7154 24.3343 41.7154 23.7855V8.15462C41.7154 7.60587 41.2705 7.16101 40.7218 7.16101Z" fill="white"/>
<path fill-rule="evenodd" clip-rule="evenodd" d="M9.77632 25.5628H39.0967C40.9751 25.5628 42.5005 24.0373 42.5005 22.1615V9.77897C42.5005 7.90045 40.9751 6.375 39.0967 6.375H9.77632C7.90039 6.375 6.375 7.90047 6.375 9.77897V22.1615C6.375 24.0373 7.90041 25.5628 9.77632 25.5628ZM7.94529 9.779C7.94529 8.76733 8.76726 7.94529 9.77632 7.94529H39.0967C40.1083 7.94529 40.9303 8.76735 40.9303 9.779V22.1616C40.9303 23.1706 40.1083 23.9926 39.0967 23.9926H9.77632C8.76726 23.9926 7.94529 23.1706 7.94529 22.1616V9.779Z" fill="black"/>
<path d="M41.7202 9.79915V22.1527C41.7202 23.6044 40.532 24.7926 39.0803 24.7926H9.80739C8.32939 24.7926 7.16748 23.6044 7.16748 22.1527H36.4405C37.8922 22.1527 39.0803 20.9646 39.0803 19.5129V7.15918C40.532 7.15918 41.7202 8.34748 41.7202 9.79915Z" fill="black"/>
<path fill-rule="evenodd" clip-rule="evenodd" d="M9.77632 25.5628H39.0967C40.9751 25.5628 42.5005 24.0373 42.5005 22.1615V9.77897C42.5005 7.90045 40.9751 6.375 39.0967 6.375H9.77632C7.90039 6.375 6.375 7.90047 6.375 9.77897V22.1615C6.375 24.0373 7.90041 25.5628 9.77632 25.5628ZM7.94529 9.779C7.94529 8.76733 8.76726 7.94529 9.77632 7.94529H39.0967C40.1083 7.94529 40.9303 8.76735 40.9303 9.779V22.1616C40.9303 23.1706 40.1083 23.9926 39.0967 23.9926H9.77632C8.76726 23.9926 7.94529 23.1706 7.94529 22.1616V9.779Z" fill="black"/>
<path d="M13.9461 18.164C14.6099 18.8701 15.6453 19.4866 16.9837 19.4866C18.3668 19.4866 18.9122 18.8095 18.9122 18.1772C18.9122 17.3157 17.89 17.0549 16.7255 16.7545C15.1553 16.3672 13.3137 15.9062 13.3137 13.875C13.3137 12.2915 14.7101 11.0691 16.8098 11.0691C18.3063 11.0691 19.5155 11.546 20.4086 12.4074L19.4444 13.659C18.6962 12.9107 17.6739 12.5655 16.6649 12.5655C15.6717 12.5655 15.0393 13.0397 15.0393 13.7589C15.0393 14.5098 16.0194 14.7523 17.1576 15.042C18.7409 15.4452 20.6247 15.9352 20.6247 18.0218C20.6247 19.6183 19.5023 20.9857 16.9125 20.9857C15.1394 20.9857 13.8618 20.3666 13.0134 19.4602L13.9461 18.164Z" fill="black"/>
<path d="M22.7588 11.2136H24.445V20.8114H22.7588V11.2136Z" fill="#436AF5"/>
<path fill-rule="evenodd" clip-rule="evenodd" d="M31.2793 11.2136H27.064V20.8114H28.7475V17.2284H31.2793C33.2817 17.2284 34.4198 15.8453 34.4198 14.2197C34.4198 12.5942 33.2949 11.2136 31.2793 11.2136ZM28.7475 12.6943H31.0501C32.0013 12.6943 32.6889 13.3002 32.6889 14.2197C32.6889 15.1417 32.0013 15.7451 31.0501 15.7451H28.7475V12.6943Z" fill="black"/>
</svg>
